<mxfile
  host="Electron" 
  agent="Mozilla/5.0 (Macintosh; Intel Mac OS X 10_15_7) AppleWebKit/537.36 (KHTML, like Gecko) draw.io/25.0.2 Chrome/128.0.6613.186 Electron/32.2.5 Safari/537.36" 
  version="25.0.2"
  >
  <diagram
    name="-"
    >
    <mxGraphModel
      grid="1" 
      gridSize="10" 
      guides="1" 
      tooltips="1" 
      connect="1" 
      arrows="1" 
      fold="1" 
      page="1" 
      pageScale="1" 
      pageWidth="1" 
      pageHeight="1" 
      math="0" 
      shadow="0"
      >
      <root>
        <mxCell
          id="page"
          />
        <mxCell
          id="root" 
          parent="page"
          />
        <mxCell
          style="verticalAlign=top;aspect=fixed;align=center;spacingLeft=5;spacingRight=5;spacingBottom=5;strokeColor=none;" 
          id="shape_" 
          parent="root" 
          value=" " 
          vertex="1"
          >
          <mxGeometry
            as="geometry" 
            width="92" 
            height="102" 
            x="0" 
            y="0"
            />
          </mxCell>
        <mxCell
          style="rounded=1;whiteSpace=wrap;verticalAlign=top;align=center;sketch=0;html=1;labelPosition=center;verticalLabelPosition=bottom;spacingTop=-6;fontSize=11;fontStyle=1;fontColor=#999999;shape=image;aspect=fixed;imageAspect=0;image=data:image/svg+xml,PHN2ZyB4bWxucz0iaHR0cDovL3d3dy53My5vcmcvMjAwMC9zdmciIGlkPSJzdmcxNzUwNCIgdmVyc2lvbj0iMS4xIiB2aWV3Qm94PSIwIDAgMTM5LjUyMjcyIDE4My42MDg4NCIgaGVpZ2h0PSIxODMuNjA4ODRtbSIgd2lkdGg9IjEzOS41MjI3Mm1tIj4mI3hhOyAgJiN4YTsgIDxkZWZzIGlkPSJkZWZzMTc1MDEiLz4mI3hhOyAgPGcgdHJhbnNmb3JtPSJ0cmFuc2xhdGUoLTM1Ljg0NDkwNSwtNTUuNTYzODk1KSIgaWQ9ImxheWVyMSI+JiN4YTsgICAgPHBhdGggaWQ9InBhdGgxNzY1OCIgZD0iTSA3Mi45MDAzNzcsMjAzLjU0MjE4IDQyLjkzNDMwNCwxODYuMTU4OCBjIC00Ljg3OTA1OCwtMy41NjYxMiAtNy4wODkzOTksLTQuMjA5MzQgLTcuMDg5Mzk5LC0xMy43NDM5MSB2IC03MC4xNDYyNyBjIDAsLTUuNTU3OTcxIDEuMzc2MTMxLC04Ljg1NjM0MyA3LjIwMjk5MSwtMTEuOTg0ODY4IEwgOTguNjUxODcxLDU3LjQzNTA2MyBjIDMuOTE5MTA5LC0xLjg5NDE0MSA5LjQ3MDE3OSwtMi45NzU3NzkgMTMuNjgzNTM5LC0wLjEzMjQxNSBsIDU2Ljk1MDg0LDMzLjMzMjkxMiBjIDQuNTY1NDgsMy40NjgzMjEgNS45NjA5OSw2Ljc5NzUwOCA2LjA4MTM3LDEyLjE1ODgzIHYgNzEuMzQxODkgYyAwLDYuNDIwMDQgLTEuODkyMTksOS4yODg3MSAtNS41OTMyNCwxMS4wNzY3OCBsIC04OC44NTM3OTYsNTIuNDc5MjMgYyAtNS42NTc1NywzLjIxMTE3IC03LjgxMjMwOCwwLjc2MDM2IC04LjAyMDIwNywtMy4xNzAxNiB6IiBzdHlsZT0ib3BhY2l0eToxO2ZpbGw6IzQyODVmNDtmaWxsLW9wYWNpdHk6MTtzdHJva2U6bm9uZTtzdHJva2Utd2lkdGg6MC4yNjQ1ODNweDtzdHJva2UtbGluZWNhcDpidXR0O3N0cm9rZS1saW5lam9pbjptaXRlcjtzdHJva2Utb3BhY2l0eToxIi8+JiN4YTsgICAgPHBhdGggZD0ibSAxMTcuNjE5MTQsMTM3LjM5MDYyIHYgMzIuOTI1NzkgaCAyMS4yMzI0MiB2IC05IGggLTEyLjIzMjQyIHYgLTE0LjkyNTc5IGggMTIuMjMyNDIgdiAtOSB6IE0gMTA2LjA5Mzc1LDkyLjk4NjMyOCBjIC0yMS4wMTQ5MDUsMCAtMzkuMTg3NSwxNi42NjQ1MDIgLTM5LjE4NzUsMzUuODM1OTQyIHYgMjkuODIyMjYgbCAwLjAwMiwwLjAzNzEgYyAwLjA1MjIxLDMuMTY1NTEgMS4xMjA0NDEsNi4yNzIyNiAzLjI4NzEwOSw4LjY0NDUzIDIuMTY2NjY5LDIuMzcyMjcgNS40NjU2MTQsMy44Mzc4OSA5LjAxNzU3OSwzLjgzNzg5IEggOTMuNzMwNDY5IFYgMTM3LjYzMjgxIEggNzUuOTA2MjUgdiAtOC44MTA1NCBjIDAsLTEzLjE5NTA4IDE0LjA2OTI1NCwtMjYuODM1OTQgMzAuMTg3NSwtMjYuODM1OTQgMTYuNjE2MzIsMCAyOS40OTIxOSwxNC40NDUzNiAyOS40OTIxOSwyNi4yODMyIHYgNDYuMjUzOTEgaCAtMjUuODczMDUgdiA5IGggMzQuODczMDUgdiAtNTUuMjUzOTEgYyAwLC0xNy44NTA2MSAtMTYuODczNDUsLTM1LjI4MzIwMiAtMzguNDkyMTksLTM1LjI4MzIwMiB6IG0gLTMwLjE4NzUsNTMuNjQ2NDgyIGggOC44MjQyMTkgdiAxNS41MzEyNSBoIC01LjUxNzU3OCBjIC0xLjMwMTEzLDAgLTEuODY4NDQ2LC0wLjM1Mzc2IC0yLjM3MzA0NywtMC45MDYyNSAtMC41MDQ2MDIsLTAuNTUyNDggLTAuOTEyOTYsLTEuNDczNDYgLTAuOTMzNTk0LC0yLjcyNDYxIHoiIHN0eWxlPSJjb2xvcjojMDAwMDAwO29wYWNpdHk6MTtmaWxsOiNmZmZmZmY7LWlua3NjYXBlLXN0cm9rZTpub25lIiBpZD0icGF0aDE5NjU1Ii8+JiN4YTsgIDwvZz4mI3hhOzwvc3ZnPg;strokeColor=none;" 
          id="agent_assist_" 
          parent="shape_" 
          value=" " 
          vertex="1"
          >
          <mxGeometry
            width="32" 
            height="42" 
            as="geometry" 
            x="30" 
            y="30"
            />
          </mxCell>
        </root>
      </mxGraphModel>
    </diagram>
  </mxfile>